<?xml version="1.0" encoding="us-ascii" standalone="no"?><svg xmlns="http://www.w3.org/2000/svg" xmlns:xlink="http://www.w3.org/1999/xlink" contentStyleType="text/css" height="637px" preserveAspectRatio="none" style="width:1353px;height:637px;background:#FFFFFF;" version="1.1" viewBox="0 0 1353 637" width="1353px" zoomAndPan="magnify"><defs/><g><!--cluster Eco30 Carbon Offset Project--><g id="cluster_Eco30 Carbon Offset Project"><path d="M178.5,105.5 L409.5,105.5 A3.75,3.75 0 0 1 412,108 L419,127.7969 L971.5,127.7969 A2.5,2.5 0 0 1 974,130.2969 L974,216 A2.5,2.5 0 0 1 971.5,218.5 L178.5,218.5 A2.5,2.5 0 0 1 176,216 L176,108 A2.5,2.5 0 0 1 178.5,105.5 " fill="none" style="stroke:#000000;stroke-width:1.5;"/><line style="stroke:#000000;stroke-width:1.5;" x1="176" x2="419" y1="127.7969" y2="127.7969"/><text fill="#000000" font-family="sans-serif" font-size="14" font-weight="bold" lengthAdjust="spacing" textLength="230" x="180" y="120.4951">Eco30 Carbon Offset Project</text></g><!--cluster Decentralized Autonomous Registry--><g id="cluster_Decentralized Autonomous Registry"><path d="M221,268.5 C221,258.5 401,258.5 401,258.5 C401,258.5 581,258.5 581,268.5 L581,504.5 C581,514.5 401,514.5 401,514.5 C401,514.5 221,514.5 221,504.5 L221,268.5 " fill="none" style="stroke:#181818;stroke-width:1.0;"/><path d="M221,268.5 C221,278.5 401,278.5 401,278.5 C401,278.5 581,278.5 581,268.5 " fill="none" style="stroke:#181818;stroke-width:1.0;"/><text fill="#000000" font-family="sans-serif" font-size="14" font-weight="bold" lengthAdjust="spacing" textLength="292" x="255" y="293.4951">Decentralized Autonomous Registry</text></g><!--cluster Decentralized Database--><g id="cluster_Decentralized Database"><path d="M621,396.5 C621,386.5 809,386.5 809,386.5 C809,386.5 997,386.5 997,396.5 L997,610.5 C997,620.5 809,620.5 809,620.5 C809,620.5 621,620.5 621,610.5 L621,396.5 " fill="none" style="stroke:#181818;stroke-width:1.0;"/><path d="M621,396.5 C621,406.5 809,406.5 809,406.5 C809,406.5 997,406.5 997,396.5 " fill="none" style="stroke:#181818;stroke-width:1.0;"/><text fill="#000000" font-family="sans-serif" font-size="14" font-weight="bold" lengthAdjust="spacing" textLength="193" x="712.5" y="421.4951">Decentralized Database</text></g><!--cluster Blockchain--><g id="cluster_Blockchain"><path d="M1037,396.5 C1037,386.5 1186.5,386.5 1186.5,386.5 C1186.5,386.5 1336,386.5 1336,396.5 L1336,504.5 C1336,514.5 1186.5,514.5 1186.5,514.5 C1186.5,514.5 1037,514.5 1037,504.5 L1037,396.5 " fill="none" style="stroke:#181818;stroke-width:1.0;"/><path d="M1037,396.5 C1037,406.5 1186.5,406.5 1186.5,406.5 C1186.5,406.5 1336,406.5 1336,396.5 " fill="none" style="stroke:#181818;stroke-width:1.0;"/><text fill="#000000" font-family="sans-serif" font-size="14" font-weight="bold" lengthAdjust="spacing" textLength="88" x="1142.5" y="421.4951">Blockchain</text></g><!--entity Greenwashing Prevention--><g id="elem_Greenwashing Prevention"><rect fill="#F1F1F1" height="46.2969" rx="2.5" ry="2.5" style="stroke:#181818;stroke-width:0.5;" width="224" x="726" y="148.5"/><rect fill="#F1F1F1" height="10" style="stroke:#181818;stroke-width:0.5;" width="15" x="930" y="153.5"/><rect fill="#F1F1F1" height="2" style="stroke:#181818;stroke-width:0.5;" width="4" x="928" y="155.5"/><rect fill="#F1F1F1" height="2" style="stroke:#181818;stroke-width:0.5;" width="4" x="928" y="159.5"/><text fill="#000000" font-family="sans-serif" font-size="14" lengthAdjust="spacing" textLength="184" x="741" y="181.4951">Greenwashing Prevention</text></g><!--entity Carbon Offset Registration--><g id="elem_Carbon Offset Registration"><rect fill="#F1F1F1" height="46.2969" rx="2.5" ry="2.5" style="stroke:#181818;stroke-width:0.5;" width="235" x="455.5" y="148.5"/><rect fill="#F1F1F1" height="10" style="stroke:#181818;stroke-width:0.5;" width="15" x="670.5" y="153.5"/><rect fill="#F1F1F1" height="2" style="stroke:#181818;stroke-width:0.5;" width="4" x="668.5" y="155.5"/><rect fill="#F1F1F1" height="2" style="stroke:#181818;stroke-width:0.5;" width="4" x="668.5" y="159.5"/><text fill="#000000" font-family="sans-serif" font-size="14" lengthAdjust="spacing" textLength="195" x="470.5" y="181.4951">Carbon Offset Registration</text></g><!--entity Ecological Restoration--><g id="elem_Ecological Restoration"><rect fill="#F1F1F1" height="46.2969" rx="2.5" ry="2.5" style="stroke:#181818;stroke-width:0.5;" width="201" x="219.5" y="148.5"/><rect fill="#F1F1F1" height="10" style="stroke:#181818;stroke-width:0.5;" width="15" x="400.5" y="153.5"/><rect fill="#F1F1F1" height="2" style="stroke:#181818;stroke-width:0.5;" width="4" x="398.5" y="155.5"/><rect fill="#F1F1F1" height="2" style="stroke:#181818;stroke-width:0.5;" width="4" x="398.5" y="159.5"/><text fill="#000000" font-family="sans-serif" font-size="14" lengthAdjust="spacing" textLength="161" x="234.5" y="181.4951">Ecological Restoration</text></g><!--entity Certification--><g id="elem_Certification"><rect fill="#F1F1F1" height="46.2969" rx="2.5" ry="2.5" style="stroke:#181818;stroke-width:0.5;" width="131" x="245.5" y="316.5"/><rect fill="#F1F1F1" height="10" style="stroke:#181818;stroke-width:0.5;" width="15" x="356.5" y="321.5"/><rect fill="#F1F1F1" height="2" style="stroke:#181818;stroke-width:0.5;" width="4" x="354.5" y="323.5"/><rect fill="#F1F1F1" height="2" style="stroke:#181818;stroke-width:0.5;" width="4" x="354.5" y="327.5"/><text fill="#000000" font-family="sans-serif" font-size="14" lengthAdjust="spacing" textLength="91" x="260.5" y="349.4951">Certification</text></g><!--entity Governance--><g id="elem_Governance"><rect fill="#F1F1F1" height="46.2969" rx="2.5" ry="2.5" style="stroke:#181818;stroke-width:0.5;" width="126" x="412" y="316.5"/><rect fill="#F1F1F1" height="10" style="stroke:#181818;stroke-width:0.5;" width="15" x="518" y="321.5"/><rect fill="#F1F1F1" height="2" style="stroke:#181818;stroke-width:0.5;" width="4" x="516" y="323.5"/><rect fill="#F1F1F1" height="2" style="stroke:#181818;stroke-width:0.5;" width="4" x="516" y="327.5"/><text fill="#000000" font-family="sans-serif" font-size="14" lengthAdjust="spacing" textLength="86" x="427" y="349.4951">Governance</text></g><!--entity Tokenization--><g id="elem_Tokenization"><rect fill="#F1F1F1" height="46.2969" rx="2.5" ry="2.5" style="stroke:#181818;stroke-width:0.5;" width="134" x="245" y="444.5"/><rect fill="#F1F1F1" height="10" style="stroke:#181818;stroke-width:0.5;" width="15" x="359" y="449.5"/><rect fill="#F1F1F1" height="2" style="stroke:#181818;stroke-width:0.5;" width="4" x="357" y="451.5"/><rect fill="#F1F1F1" height="2" style="stroke:#181818;stroke-width:0.5;" width="4" x="357" y="455.5"/><text fill="#000000" font-family="sans-serif" font-size="14" lengthAdjust="spacing" textLength="94" x="260" y="477.4951">Tokenization</text></g><!--entity Drone Flights--><g id="elem_Drone Flights"><rect fill="#F1F1F1" height="46.2969" rx="2.5" ry="2.5" style="stroke:#181818;stroke-width:0.5;" width="136" x="664" y="444.5"/><rect fill="#F1F1F1" height="10" style="stroke:#181818;stroke-width:0.5;" width="15" x="780" y="449.5"/><rect fill="#F1F1F1" height="2" style="stroke:#181818;stroke-width:0.5;" width="4" x="778" y="451.5"/><rect fill="#F1F1F1" height="2" style="stroke:#181818;stroke-width:0.5;" width="4" x="778" y="455.5"/><text fill="#000000" font-family="sans-serif" font-size="14" lengthAdjust="spacing" textLength="96" x="679" y="477.4951">Drone Flights</text></g><!--entity AI Algorithms--><g id="elem_AI Algorithms"><rect fill="#F1F1F1" height="46.2969" rx="2.5" ry="2.5" style="stroke:#181818;stroke-width:0.5;" width="137" x="835.5" y="444.5"/><rect fill="#F1F1F1" height="10" style="stroke:#181818;stroke-width:0.5;" width="15" x="952.5" y="449.5"/><rect fill="#F1F1F1" height="2" style="stroke:#181818;stroke-width:0.5;" width="4" x="950.5" y="451.5"/><rect fill="#F1F1F1" height="2" style="stroke:#181818;stroke-width:0.5;" width="4" x="950.5" y="455.5"/><text fill="#000000" font-family="sans-serif" font-size="14" lengthAdjust="spacing" textLength="97" x="850.5" y="477.4951">AI Algorithms</text></g><!--entity QR Codes--><g id="elem_QR Codes"><rect fill="#F1F1F1" height="46.2969" rx="2.5" ry="2.5" style="stroke:#181818;stroke-width:0.5;" width="109" x="677.5" y="550.5"/><rect fill="#F1F1F1" height="10" style="stroke:#181818;stroke-width:0.5;" width="15" x="766.5" y="555.5"/><rect fill="#F1F1F1" height="2" style="stroke:#181818;stroke-width:0.5;" width="4" x="764.5" y="557.5"/><rect fill="#F1F1F1" height="2" style="stroke:#181818;stroke-width:0.5;" width="4" x="764.5" y="561.5"/><text fill="#000000" font-family="sans-serif" font-size="14" lengthAdjust="spacing" textLength="69" x="692.5" y="583.4951">QR Codes</text></g><!--entity Immutable Carbon Offsets--><g id="elem_Immutable Carbon Offsets"><rect fill="#F1F1F1" height="46.2969" rx="2.5" ry="2.5" style="stroke:#181818;stroke-width:0.5;" width="231" x="1080.5" y="444.5"/><rect fill="#F1F1F1" height="10" style="stroke:#181818;stroke-width:0.5;" width="15" x="1291.5" y="449.5"/><rect fill="#F1F1F1" height="2" style="stroke:#181818;stroke-width:0.5;" width="4" x="1289.5" y="451.5"/><rect fill="#F1F1F1" height="2" style="stroke:#181818;stroke-width:0.5;" width="4" x="1289.5" y="455.5"/><text fill="#000000" font-family="sans-serif" font-size="14" lengthAdjust="spacing" textLength="191" x="1095.5" y="477.4951">Immutable Carbon Offsets</text></g><!--entity Corporations--><g id="elem_Corporations"><ellipse cx="53" cy="14" fill="#F1F1F1" rx="8" ry="8" style="stroke:#181818;stroke-width:0.5;"/><path d="M53,22 L53,49 M40,30 L66,30 M53,49 L40,64 M53,49 L66,64 " fill="none" style="stroke:#181818;stroke-width:0.5;"/><text fill="#000000" font-family="sans-serif" font-size="14" lengthAdjust="spacing" textLength="94" x="6" y="78.4951">Corporations</text></g><!--entity Governments--><g id="elem_Governments"><ellipse cx="184" cy="14" fill="#F1F1F1" rx="8" ry="8" style="stroke:#181818;stroke-width:0.5;"/><path d="M184,22 L184,49 M171,30 L197,30 M184,49 L171,64 M184,49 L197,64 " fill="none" style="stroke:#181818;stroke-width:0.5;"/><text fill="#000000" font-family="sans-serif" font-size="14" lengthAdjust="spacing" textLength="98" x="135" y="78.4951">Governments</text></g><!--entity InstitutionalInvestors--><g id="elem_InstitutionalInvestors"><ellipse cx="345" cy="14" fill="#F1F1F1" rx="8" ry="8" style="stroke:#181818;stroke-width:0.5;"/><path d="M345,22 L345,49 M332,30 L358,30 M345,49 L332,64 M345,49 L358,64 " fill="none" style="stroke:#181818;stroke-width:0.5;"/><text fill="#000000" font-family="sans-serif" font-size="14" lengthAdjust="spacing" textLength="153" x="268.5" y="78.4951">InstitutionalInvestors</text></g><!--link Greenwashing Prevention to Decentralized Autonomous Registry--><g id="link_Greenwashing Prevention_Decentralized Autonomous Registry"><path d="M802.81,194.544 C767.3305,216.7685 711.105,251.989 663.1503,282.0286 C639.1729,297.0484 617.2632,310.773 601.0483,320.9303 C592.9408,326.0089 586.2571,330.1957 581.4504,333.2067 C581.3002,333.3008 581.1518,333.3937 581.0053,333.4855 " fill="none" id="Greenwashing Prevention-to-Decentralized Autonomous Registry" style="stroke:#181818;stroke-width:1.0;"/><polygon fill="#181818" points="581.0053,333.4855,590.7559,332.0976,585.2426,330.8312,586.509,325.3179,581.0053,333.4855" style="stroke:#181818;stroke-width:1.0;"/></g><!--link Carbon Offset Registration to Decentralized Autonomous Registry--><g id="link_Carbon Offset Registration_Decentralized Autonomous Registry"><path d="M573,194.544 C573,205.6563 573,220.0175 573,235.3556 C573,239.1902 573,243.0858 573,247.0069 C573,248.9675 573,250.9344 573,252.9034 C573,253.8878 573,254.8728 573,255.8576 C573,256.3501 573,256.8425 573,257.3348 C573,257.581 573,257.8271 573,258.0733 " fill="none" id="Carbon Offset Registration-to-Decentralized Autonomous Registry" style="stroke:#181818;stroke-width:1.0;"/><polygon fill="#181818" points="573,258.0733,577,249.0733,573,253.0733,569,249.0733,573,258.0733" style="stroke:#181818;stroke-width:1.0;"/></g><!--link Ecological Restoration to Decentralized Autonomous Registry--><g id="link_Ecological Restoration_Decentralized Autonomous Registry"><path d="M353.015,194.629 C375.849,208.702 407.498,225.851 438,234.5 C450.429,238.025 544.305,233.96 554,242.5 C558.016,246.0375 561.3314,250.1579 564.0577,254.6643 C564.7393,255.7909 565.3841,256.9416 565.9938,258.1133 " fill="none" id="Ecological Restoration-to-Decentralized Autonomous Registry" style="stroke:#181818;stroke-width:1.0;"/><polygon fill="#181818" points="565.9938,258.1133,565.3879,248.2831,563.6858,253.6779,558.2911,251.9758,565.9938,258.1133" style="stroke:#181818;stroke-width:1.0;"/></g><!--link Decentralized Autonomous Registry to Decentralized Database--><g id="link_Decentralized Autonomous Registry_Decentralized Database"><path d="M581.0644,358.644 C581.1415,358.8175 581.219,358.9919 581.2969,359.1672 C581.6086,359.8685 581.9269,360.5847 582.2514,361.3149 C587.4437,372.9977 594.2274,388.2611 601.0104,403.5228 C607.7933,418.7844 614.5755,434.0442 619.7646,445.7197 C620.089,446.4494 620.4071,447.1652 620.7186,447.866 C620.7964,448.0412 620.8739,448.2155 620.9509,448.3888 " fill="none" id="Decentralized Autonomous Registry-to-Decentralized Database" style="stroke:#181818;stroke-width:1.0;"/><polygon fill="#181818" points="620.9509,448.3888,620.9509,438.54,618.9202,443.8198,613.6404,441.7891,620.9509,448.3888" style="stroke:#181818;stroke-width:1.0;"/></g><!--link Decentralized Autonomous Registry to Blockchain--><g id="link_Decentralized Autonomous Registry_Blockchain"><path d="M581.4852,340.6406 C581.7236,340.6448 581.9668,340.6491 582.2146,340.6536 C582.7101,340.6624 583.2244,340.6716 583.7569,340.6813 C585.887,340.7198 588.31,340.765 591.0047,340.8172 C601.7832,341.0258 616.9077,341.3463 635.0161,341.8045 C671.2328,342.7208 719.3848,344.1879 768.5751,346.4124 C866.9558,350.8613 969.4895,358.3395 989,370.5 C1009.63,383.3595 1023.5175,406.8163 1032.3025,427.3234 C1033.4006,429.8868 1034.419,432.4041 1035.3609,434.8488 C1035.8318,436.0712 1036.2836,437.2754 1036.7167,438.4582 C1036.7709,438.6061 1036.8247,438.7536 1036.8782,438.9008 " fill="none" id="Decentralized Autonomous Registry-to-Blockchain" style="stroke:#181818;stroke-width:1.0;"/><polygon fill="#181818" points="1036.8782,438.9008,1037.5598,429.0755,1035.1686,434.2021,1030.042,431.8109,1036.8782,438.9008" style="stroke:#181818;stroke-width:1.0;"/></g><!--link Corporations to Eco30 Carbon Offset Project--><g id="link_Corporations_Eco30 Carbon Offset Project"><path d="M91.5958,81.623 C110.3129,99.6255 132.5777,121.0403 150.562,138.338 C159.5541,146.9869 167.4761,154.6065 173.3495,160.2557 C174.0836,160.9619 174.7858,161.6372 175.454,162.28 C175.6211,162.4407 175.786,162.5993 175.9488,162.7559 " fill="none" id="Corporations-to-Eco30 Carbon Offset Project" style="stroke:#181818;stroke-width:1.0;"/><polygon fill="#181818" points="175.9488,162.7559,172.2352,153.634,172.3452,159.2898,166.6894,159.3998,175.9488,162.7559" style="stroke:#181818;stroke-width:1.0;"/></g><!--link Governments to Eco30 Carbon Offset Project--><g id="link_Governments_Eco30 Carbon Offset Project"><path d="M184,81.623 C184,86.1236 184,90.8375 184,95.647 C184,98.0518 184,100.4804 184,102.9183 C184,103.5278 184,104.1378 184,104.7482 C184,104.9008 184,105.0534 184,105.206 " fill="none" id="Governments-to-Eco30 Carbon Offset Project" style="stroke:#181818;stroke-width:1.0;"/><polygon fill="#181818" points="184,105.206,188,96.206,184,100.206,180,96.206,184,105.206" style="stroke:#181818;stroke-width:1.0;"/></g><!--link InstitutionalInvestors to Eco30 Carbon Offset Project--><g id="link_InstitutionalInvestors_Eco30 Carbon Offset Project"><path d="M268.452,75.833 C262.259,77.901 256.056,79.824 250,81.5 C229.578,87.152 218.439,74.987 203,89.5 C199.7375,92.5669 196.9865,96.0787 194.671,99.8829 C194.0922,100.8339 193.5405,101.8032 193.0149,102.7884 C192.7521,103.281 192.4958,103.7775 192.2458,104.2778 C192.1209,104.5279 191.9975,104.7789 191.8757,105.0308 C191.8148,105.1568 191.7542,105.283 191.6941,105.4094 " fill="none" id="InstitutionalInvestors-to-Eco30 Carbon Offset Project" style="stroke:#181818;stroke-width:1.0;"/><polygon fill="#181818" points="191.6941,105.4094,199.1723,99.0003,193.8419,100.8942,191.948,95.5638,191.6941,105.4094" style="stroke:#181818;stroke-width:1.0;"/></g><!--SRC=[ZPDDRy8m38Rl-HKMTwH9kqzYT4CzRKExeHvCC6tMD4Q9ssbC- -yBRHamyT6Z_TgFhJSEQc4FK_ORzYY6NL3OfcRSa7SLETbdKXV4IBqhGfkwXaBC1gKsg4lC2KPFck_lO8f-oGvUrkj00g-UFqZB2BuLm6BcYTmdXiAuF4hKH7p4PJljj6zEkGdIhTJA4MuvDnfjr7QJU-b7gOjO68yVO96GZh57QxQqWaajxBZYEkndV6Ngsl3Xa0ih3WQe5GekCKGhRrRtXax9Yrd7aNy-TU-6JbCRldD9pcmFPbsQaVJv7fnuTWJFrkI5X9OqIM5YS_P6YghBlCtZuQme_EC-MjQbBj2udfLMLHr5IwUtqVKDCEQSWVjri-60mrxHwkEBx-GhrvkfezymeFhyJxdT-0i0]--></g></svg>