<?xml version="1.0" encoding="us-ascii" standalone="no"?><svg xmlns="http://www.w3.org/2000/svg" xmlns:xlink="http://www.w3.org/1999/xlink" contentStyleType="text/css" height="471px" preserveAspectRatio="none" style="width:1072px;height:471px;background:#FFFFFF;" version="1.1" viewBox="0 0 1072 471" width="1072px" zoomAndPan="magnify"><defs/><g><!--cluster ECO30 Solutions--><g id="cluster_ECO30 Solutions"><path d="M97.5,6 L231.5,6 A3.75,3.75 0 0 1 234,8.5 L241,28.2969 L609.5,28.2969 A2.5,2.5 0 0 1 612,30.7969 L612,100.5 A2.5,2.5 0 0 1 609.5,103 L97.5,103 A2.5,2.5 0 0 1 95,100.5 L95,8.5 A2.5,2.5 0 0 1 97.5,6 " fill="none" style="stroke:#000000;stroke-width:1.5;"/><line style="stroke:#000000;stroke-width:1.5;" x1="95" x2="241" y1="28.2969" y2="28.2969"/><text fill="#000000" font-family="sans-serif" font-size="14" font-weight="bold" lengthAdjust="spacing" textLength="133" x="99" y="20.9951">ECO30 Solutions</text></g><!--cluster Carbon Sequestration Techniques--><g id="cluster_Carbon Sequestration Techniques"><path d="M6,183 C6,173 210,173 210,173 C210,173 414,173 414,183 L414,444 C414,454 210,454 210,454 C210,454 6,454 6,444 L6,183 " fill="none" style="stroke:#181818;stroke-width:1.0;"/><path d="M6,183 C6,193 210,193 210,193 C210,193 414,193 414,183 " fill="none" style="stroke:#181818;stroke-width:1.0;"/><text fill="#000000" font-family="sans-serif" font-size="14" font-weight="bold" lengthAdjust="spacing" textLength="274" x="73" y="207.9951">Carbon Sequestration Techniques</text></g><!--entity Climate Change Alleviation--><g id="elem_Climate Change Alleviation"><rect fill="#F1F1F1" height="46.2969" rx="2.5" ry="2.5" style="stroke:#181818;stroke-width:0.5;" width="234" x="111" y="41"/><rect fill="#F1F1F1" height="10" style="stroke:#181818;stroke-width:0.5;" width="15" x="325" y="46"/><rect fill="#F1F1F1" height="2" style="stroke:#181818;stroke-width:0.5;" width="4" x="323" y="48"/><rect fill="#F1F1F1" height="2" style="stroke:#181818;stroke-width:0.5;" width="4" x="323" y="52"/><text fill="#000000" font-family="sans-serif" font-size="14" lengthAdjust="spacing" textLength="194" x="126" y="73.9951">Climate Change Alleviation</text></g><!--entity Ecosystem Rejuvenation--><g id="elem_Ecosystem Rejuvenation"><rect fill="#F1F1F1" height="46.2969" rx="2.5" ry="2.5" style="stroke:#181818;stroke-width:0.5;" width="216" x="380" y="41"/><rect fill="#F1F1F1" height="10" style="stroke:#181818;stroke-width:0.5;" width="15" x="576" y="46"/><rect fill="#F1F1F1" height="2" style="stroke:#181818;stroke-width:0.5;" width="4" x="574" y="48"/><rect fill="#F1F1F1" height="2" style="stroke:#181818;stroke-width:0.5;" width="4" x="574" y="52"/><text fill="#000000" font-family="sans-serif" font-size="14" lengthAdjust="spacing" textLength="176" x="395" y="73.9951">Ecosystem Rejuvenation</text></g><!--entity Novel Techniques--><g id="elem_Novel Techniques"><rect fill="#F1F1F1" height="46.2969" rx="2.5" ry="2.5" style="stroke:#181818;stroke-width:0.5;" width="165" x="30.5" y="231"/><rect fill="#F1F1F1" height="10" style="stroke:#181818;stroke-width:0.5;" width="15" x="175.5" y="236"/><rect fill="#F1F1F1" height="2" style="stroke:#181818;stroke-width:0.5;" width="4" x="173.5" y="238"/><rect fill="#F1F1F1" height="2" style="stroke:#181818;stroke-width:0.5;" width="4" x="173.5" y="242"/><text fill="#000000" font-family="sans-serif" font-size="14" lengthAdjust="spacing" textLength="125" x="45.5" y="263.9951">Novel Techniques</text></g><!--entity Reforestation--><g id="elem_Reforestation"><rect fill="#F1F1F1" height="46.2969" rx="2.5" ry="2.5" style="stroke:#181818;stroke-width:0.5;" width="140" x="231" y="231"/><rect fill="#F1F1F1" height="10" style="stroke:#181818;stroke-width:0.5;" width="15" x="351" y="236"/><rect fill="#F1F1F1" height="2" style="stroke:#181818;stroke-width:0.5;" width="4" x="349" y="238"/><rect fill="#F1F1F1" height="2" style="stroke:#181818;stroke-width:0.5;" width="4" x="349" y="242"/><text fill="#000000" font-family="sans-serif" font-size="14" lengthAdjust="spacing" textLength="100" x="246" y="263.9951">Reforestation</text></g><!--entity Land Management--><g id="elem_Land Management"><rect fill="#F1F1F1" height="46.2969" rx="2.5" ry="2.5" style="stroke:#181818;stroke-width:0.5;" width="172" x="30" y="384"/><rect fill="#F1F1F1" height="10" style="stroke:#181818;stroke-width:0.5;" width="15" x="182" y="389"/><rect fill="#F1F1F1" height="2" style="stroke:#181818;stroke-width:0.5;" width="4" x="180" y="391"/><rect fill="#F1F1F1" height="2" style="stroke:#181818;stroke-width:0.5;" width="4" x="180" y="395"/><text fill="#000000" font-family="sans-serif" font-size="14" lengthAdjust="spacing" textLength="132" x="45" y="416.9951">Land Management</text></g><!--entity Enterprises--><g id="elem_Enterprises"><ellipse cx="987" cy="34.5" fill="#F1F1F1" rx="8" ry="8" style="stroke:#181818;stroke-width:0.5;"/><path d="M987,42.5 L987,69.5 M974,50.5 L1000,50.5 M987,69.5 L974,84.5 M987,69.5 L1000,84.5 " fill="none" style="stroke:#181818;stroke-width:0.5;"/><text fill="#000000" font-family="sans-serif" font-size="14" lengthAdjust="spacing" textLength="83" x="945.5" y="98.9951">Enterprises</text></g><!--entity Collectives--><g id="elem_Collectives"><ellipse cx="815" cy="34.5" fill="#F1F1F1" rx="8" ry="8" style="stroke:#181818;stroke-width:0.5;"/><path d="M815,42.5 L815,69.5 M802,50.5 L828,50.5 M815,69.5 L802,84.5 M815,69.5 L828,84.5 " fill="none" style="stroke:#181818;stroke-width:0.5;"/><text fill="#000000" font-family="sans-serif" font-size="14" lengthAdjust="spacing" textLength="79" x="775.5" y="98.9951">Collectives</text></g><!--entity Individuals--><g id="elem_Individuals"><ellipse cx="675" cy="34.5" fill="#F1F1F1" rx="8" ry="8" style="stroke:#181818;stroke-width:0.5;"/><path d="M675,42.5 L675,69.5 M662,50.5 L688,50.5 M675,69.5 L662,84.5 M675,69.5 L688,84.5 " fill="none" style="stroke:#181818;stroke-width:0.5;"/><text fill="#000000" font-family="sans-serif" font-size="14" lengthAdjust="spacing" textLength="74" x="638" y="98.9951">Individuals</text></g><!--entity Biodiversity--><g id="elem_Biodiversity"><ellipse cx="481" cy="377.5" fill="#F1F1F1" rx="8" ry="8" style="stroke:#181818;stroke-width:0.5;"/><path d="M481,385.5 L481,412.5 M468,393.5 L494,393.5 M481,412.5 L468,427.5 M481,412.5 L494,427.5 " fill="none" style="stroke:#181818;stroke-width:0.5;"/><text fill="#000000" font-family="sans-serif" font-size="14" lengthAdjust="spacing" textLength="85" x="438.5" y="441.9951">Biodiversity</text></g><!--entity LocalCommunities--><g id="elem_LocalCommunities"><ellipse cx="625" cy="377.5" fill="#F1F1F1" rx="8" ry="8" style="stroke:#181818;stroke-width:0.5;"/><path d="M625,385.5 L625,412.5 M612,393.5 L638,393.5 M625,412.5 L612,427.5 M625,412.5 L638,427.5 " fill="none" style="stroke:#181818;stroke-width:0.5;"/><text fill="#000000" font-family="sans-serif" font-size="14" lengthAdjust="spacing" textLength="132" x="559" y="441.9951">LocalCommunities</text></g><!--entity ReforestationProjects--><g id="elem_ReforestationProjects"><ellipse cx="829" cy="224.5" fill="#F1F1F1" rx="8" ry="8" style="stroke:#181818;stroke-width:0.5;"/><path d="M829,232.5 L829,259.5 M816,240.5 L842,240.5 M829,259.5 L816,274.5 M829,259.5 L842,274.5 " fill="none" style="stroke:#181818;stroke-width:0.5;"/><text fill="#000000" font-family="sans-serif" font-size="14" lengthAdjust="spacing" textLength="159" x="749.5" y="288.9951">ReforestationProjects</text></g><!--entity CarbonCredits--><g id="elem_CarbonCredits"><ellipse cx="629" cy="224.5" fill="#F1F1F1" rx="8" ry="8" style="stroke:#181818;stroke-width:0.5;"/><path d="M629,232.5 L629,259.5 M616,240.5 L642,240.5 M629,259.5 L616,274.5 M629,259.5 L642,274.5 " fill="none" style="stroke:#181818;stroke-width:0.5;"/><text fill="#000000" font-family="sans-serif" font-size="14" lengthAdjust="spacing" textLength="104" x="577" y="288.9951">CarbonCredits</text></g><!--link Climate Change Alleviation to Carbon Sequestration Techniques--><g id="link_Climate Change Alleviation_Carbon Sequestration Techniques"><path d="M292.077,87.144 C325.358,101.879 363.81,124.574 387,157 C390.1131,161.3533 392.7478,166.0887 394.9746,171.0463 C395.253,171.6661 395.525,172.2892 395.7907,172.9156 " fill="none" id="Climate Change Alleviation-to-Carbon Sequestration Techniques" style="stroke:#181818;stroke-width:1.0;"/><polygon fill="#181818" points="395.7907,172.9156,395.9577,163.0681,393.8378,168.3127,388.5932,166.1928,395.7907,172.9156" style="stroke:#181818;stroke-width:1.0;"/></g><!--link Ecosystem Rejuvenation to Carbon Sequestration Techniques--><g id="link_Ecosystem Rejuvenation_Carbon Sequestration Techniques"><path d="M478.272,87.304 C467.581,111.8145 449.9063,152.337 434.7123,187.1721 C427.1152,204.5897 420.1384,220.5854 414.9649,232.4469 C414.6415,233.1882 414.3252,233.9134 414.0163,234.6218 " fill="none" id="Ecosystem Rejuvenation-to-Carbon Sequestration Techniques" style="stroke:#181818;stroke-width:1.0;"/><polygon fill="#181818" points="414.0163,234.6218,421.2808,227.9715,416.0152,230.0387,413.948,224.7732,414.0163,234.6218" style="stroke:#181818;stroke-width:1.0;"/></g><!--link Carbon Sequestration Techniques to Biodiversity--><g id="link_Carbon Sequestration Techniques_Biodiversity"><path d="M414.1685,271.4457 C414.4123,271.9366 414.6605,272.4363 414.913,272.9446 C415.9228,274.9777 417.0006,277.1477 418.1369,279.4354 C420.4095,284.0109 422.916,289.0573 425.5803,294.4213 C436.2373,315.8773 449.4185,342.4155 460.252,364.227 " fill="none" id="Carbon Sequestration Techniques-to-Biodiversity" style="stroke:#181818;stroke-width:1.0;"/><polygon fill="#181818" points="462.581,368.916,462.1602,359.0761,460.3569,364.4379,454.9952,362.6346,462.581,368.916" style="stroke:#181818;stroke-width:1.0;"/><text fill="#000000" font-family="sans-serif" font-size="13" lengthAdjust="spacing" textLength="64" x="447" y="335.0669">preserves</text></g><!--link Carbon Sequestration Techniques to LocalCommunities--><g id="link_Carbon Sequestration Techniques_LocalCommunities"><path d="M414.0365,259.2056 C414.1291,259.2545 414.2223,259.3039 414.3163,259.3536 C414.6921,259.5526 415.0792,259.7578 415.4773,259.9691 C416.2736,260.3917 417.1138,260.8387 417.9955,261.3092 C425.0498,265.073 434.7644,270.3368 445.9056,276.5939 C468.188,289.108 496.1765,305.595 520,322 C539.484,335.417 559.995,351.374 577.668,365.758 " fill="none" id="Carbon Sequestration Techniques-to-LocalCommunities" style="stroke:#181818;stroke-width:1.0;"/><polygon fill="#181818" points="581.627,368.993,577.188,360.2012,577.7549,365.8296,572.1266,366.3966,581.627,368.993" style="stroke:#181818;stroke-width:1.0;"/><text fill="#000000" font-family="sans-serif" font-size="13" lengthAdjust="spacing" textLength="39" x="542" y="335.0669">uplifts</text></g><!--link Enterprises to ReforestationProjects--><g id="link_Enterprises_ReforestationProjects"><path d="M996.3,102.045 C998.2,117.411 997.68,134.903 990,149 C973.309,179.653 943.268,202.646 913.618,219.111 " fill="none" id="Enterprises-to-ReforestationProjects" style="stroke:#181818;stroke-width:1.0;"/><polygon fill="#181818" points="908.865,221.697,918.6822,220.9081,913.2567,219.3068,914.858,213.8813,908.865,221.697" style="stroke:#181818;stroke-width:1.0;"/><text fill="#000000" font-family="sans-serif" font-size="13" lengthAdjust="spacing" textLength="68" x="996" y="145.0669">participate</text></g><!--link Collectives to ReforestationProjects--><g id="link_Collectives_ReforestationProjects"><path d="M817.766,102.143 C820.096,133.428 823.428,178.173 825.858,210.805 " fill="none" id="Collectives-to-ReforestationProjects" style="stroke:#181818;stroke-width:1.0;"/><polygon fill="#181818" points="826.24,215.934,829.5605,206.6618,825.8686,210.9478,821.5826,207.2559,826.24,215.934" style="stroke:#181818;stroke-width:1.0;"/><text fill="#000000" font-family="sans-serif" font-size="13" lengthAdjust="spacing" textLength="68" x="822" y="145.0669">participate</text></g><!--link Individuals to ReforestationProjects--><g id="link_Individuals_ReforestationProjects"><path d="M704.499,102.366 C716.111,116.974 729.609,133.831 742,149 C758.891,169.677 777.893,192.447 793.819,211.397 " fill="none" id="Individuals-to-ReforestationProjects" style="stroke:#181818;stroke-width:1.0;"/><polygon fill="#181818" points="797.378,215.628,794.6466,206.1655,794.1598,211.8013,788.524,211.3145,797.378,215.628" style="stroke:#181818;stroke-width:1.0;"/><text fill="#000000" font-family="sans-serif" font-size="13" lengthAdjust="spacing" textLength="68" x="743" y="145.0669">participate</text></g><!--link Enterprises to CarbonCredits--><g id="link_Enterprises_CarbonCredits"><path d="M958.99,102.041 C943.433,119.614 922.489,138.93 899,149 C864.852,163.639 766.234,142.564 732,157 C704.222,168.713 679.305,191.42 660.938,211.809 " fill="none" id="Enterprises-to-CarbonCredits" style="stroke:#181818;stroke-width:1.0;"/><polygon fill="#181818" points="657.585,215.587,666.5512,211.5118,660.9043,211.8477,660.5684,206.2009,657.585,215.587" style="stroke:#181818;stroke-width:1.0;"/><text fill="#000000" font-family="sans-serif" font-size="13" lengthAdjust="spacing" textLength="48" x="928" y="145.0669">explore</text></g><!--link Collectives to CarbonCredits--><g id="link_Collectives_CarbonCredits"><path d="M775.323,87.699 C760.948,95.527 744.446,104.064 729,111 C704.371,122.06 690.98,112.8 672,132 C651.135,153.107 640.343,184.983 634.789,210.719 " fill="none" id="Collectives-to-CarbonCredits" style="stroke:#181818;stroke-width:1.0;"/><polygon fill="#181818" points="633.747,215.78,639.4802,207.7719,634.7556,210.8828,631.6447,206.1581,633.747,215.78" style="stroke:#181818;stroke-width:1.0;"/><text fill="#000000" font-family="sans-serif" font-size="13" lengthAdjust="spacing" textLength="48" x="673" y="145.0669">explore</text></g><!--link Individuals to CarbonCredits--><g id="link_Individuals_CarbonCredits"><path d="M637.754,95.556 C629.604,101.263 620.78,106.758 612,111 C580.447,126.247 557.225,104.115 536,132 C514.115,160.752 541.94,193.209 572.723,217.264 " fill="none" id="Individuals-to-CarbonCredits" style="stroke:#181818;stroke-width:1.0;"/><polygon fill="#181818" points="576.883,220.452,572.1727,211.8025,572.9144,217.4106,567.3064,218.1523,576.883,220.452" style="stroke:#181818;stroke-width:1.0;"/><text fill="#000000" font-family="sans-serif" font-size="13" lengthAdjust="spacing" textLength="48" x="537" y="145.0669">explore</text></g><!--SRC=[bP5DJyCm38Rl-HNMxfMGk750WcW7fF6XZHlQmKizvf4c9KaB4-A_urPbTAZxkjf-t_UnNQ9vmrU2qLW_Nbx0pDigiNTn15yAu4LRBZ0Hw1KwcRgnbch6PcBUjCV6nqrCLC2KrbLDhcjzAvLZmWL6STOO5jx1ZDuhYYcq8_1CPkMugNH93xucsokt_bDQ-Y2YlyG9kXpkqGbpGIwrKMYI3p1sYK8PE5BiAjeBhabSRojtBkUQymfjLEhGSf1brxBzOVAvsdU04-KTrIrxmQ8GEMswqiGRjDeNHUKuCRMqHzpQpBuLN44fnwFGx7-Q_7-iM5IbvMMAlwmx7taAVYq7tjwxZT21Scu4lOT0bliF9m63yWOKGsB3fRn3zTvsbgxttBDqWw0xkuY0FaihJeDm-sQ7WFRC_W00]--></g></svg>