<?xml version="1.0" encoding="us-ascii" standalone="no"?><svg xmlns="http://www.w3.org/2000/svg" xmlns:xlink="http://www.w3.org/1999/xlink" contentStyleType="text/css" height="209px" preserveAspectRatio="none" style="width:1539px;height:209px;background:#FFFFFF;" version="1.1" viewBox="0 0 1539 209" width="1539px" zoomAndPan="magnify"><defs/><g><!--cluster Polygon Blockchain--><g id="cluster_Polygon Blockchain"><path d="M269.5,6 L427.5,6 A3.75,3.75 0 0 1 430,8.5 L437,28.2969 L1184.5,28.2969 A2.5,2.5 0 0 1 1187,30.7969 L1187,100.5 A2.5,2.5 0 0 1 1184.5,103 L269.5,103 A2.5,2.5 0 0 1 267,100.5 L267,8.5 A2.5,2.5 0 0 1 269.5,6 " fill="none" style="stroke:#000000;stroke-width:1.5;"/><line style="stroke:#000000;stroke-width:1.5;" x1="267" x2="437" y1="28.2969" y2="28.2969"/><text fill="#000000" font-family="sans-serif" font-size="14" font-weight="bold" lengthAdjust="spacing" textLength="157" x="271" y="20.9951">Polygon Blockchain</text></g><!--entity Scalability--><g id="elem_Scalability"><rect fill="#F1F1F1" height="46.2969" rx="2.5" ry="2.5" style="stroke:#181818;stroke-width:0.5;" width="114" x="283" y="41"/><rect fill="#F1F1F1" height="10" style="stroke:#181818;stroke-width:0.5;" width="15" x="377" y="46"/><rect fill="#F1F1F1" height="2" style="stroke:#181818;stroke-width:0.5;" width="4" x="375" y="48"/><rect fill="#F1F1F1" height="2" style="stroke:#181818;stroke-width:0.5;" width="4" x="375" y="52"/><text fill="#000000" font-family="sans-serif" font-size="14" lengthAdjust="spacing" textLength="74" x="298" y="73.9951">Scalability</text></g><!--entity Energy Efficiency--><g id="elem_Energy Efficiency"><rect fill="#F1F1F1" height="46.2969" rx="2.5" ry="2.5" style="stroke:#181818;stroke-width:0.5;" width="165" x="432.5" y="41"/><rect fill="#F1F1F1" height="10" style="stroke:#181818;stroke-width:0.5;" width="15" x="577.5" y="46"/><rect fill="#F1F1F1" height="2" style="stroke:#181818;stroke-width:0.5;" width="4" x="575.5" y="48"/><rect fill="#F1F1F1" height="2" style="stroke:#181818;stroke-width:0.5;" width="4" x="575.5" y="52"/><text fill="#000000" font-family="sans-serif" font-size="14" lengthAdjust="spacing" textLength="125" x="447.5" y="73.9951">Energy Efficiency</text></g><!--entity Ethereum Compatibility--><g id="elem_Ethereum Compatibility"><rect fill="#F1F1F1" height="46.2969" rx="2.5" ry="2.5" style="stroke:#181818;stroke-width:0.5;" width="214" x="633" y="41"/><rect fill="#F1F1F1" height="10" style="stroke:#181818;stroke-width:0.5;" width="15" x="827" y="46"/><rect fill="#F1F1F1" height="2" style="stroke:#181818;stroke-width:0.5;" width="4" x="825" y="48"/><rect fill="#F1F1F1" height="2" style="stroke:#181818;stroke-width:0.5;" width="4" x="825" y="52"/><text fill="#000000" font-family="sans-serif" font-size="14" lengthAdjust="spacing" textLength="174" x="648" y="73.9951">Ethereum Compatibility</text></g><!--entity Security--><g id="elem_Security"><rect fill="#F1F1F1" height="46.2969" rx="2.5" ry="2.5" style="stroke:#181818;stroke-width:0.5;" width="99" x="882.5" y="41"/><rect fill="#F1F1F1" height="10" style="stroke:#181818;stroke-width:0.5;" width="15" x="961.5" y="46"/><rect fill="#F1F1F1" height="2" style="stroke:#181818;stroke-width:0.5;" width="4" x="959.5" y="48"/><rect fill="#F1F1F1" height="2" style="stroke:#181818;stroke-width:0.5;" width="4" x="959.5" y="52"/><text fill="#000000" font-family="sans-serif" font-size="14" lengthAdjust="spacing" textLength="59" x="897.5" y="73.9951">Security</text></g><!--entity Interoperability--><g id="elem_Interoperability"><rect fill="#F1F1F1" height="46.2969" rx="2.5" ry="2.5" style="stroke:#181818;stroke-width:0.5;" width="154" x="1017" y="41"/><rect fill="#F1F1F1" height="10" style="stroke:#181818;stroke-width:0.5;" width="15" x="1151" y="46"/><rect fill="#F1F1F1" height="2" style="stroke:#181818;stroke-width:0.5;" width="4" x="1149" y="48"/><rect fill="#F1F1F1" height="2" style="stroke:#181818;stroke-width:0.5;" width="4" x="1149" y="52"/><text fill="#000000" font-family="sans-serif" font-size="14" lengthAdjust="spacing" textLength="114" x="1032" y="73.9951">Interoperability</text></g><g id="elem_GMN8"><path d="M6,147 L6,202.3984 A0,0 0 0 0 6,202.3984 L310,202.3984 A0,0 0 0 0 310,202.3984 L310,157 L300,147 L206.612,147 L302.73,87.218 L198.612,147 L6,147 A0,0 0 0 0 6,147 " fill="#FEFFDD" style="stroke:#181818;stroke-width:0.5;"/><path d="M300,147 L300,157 L310,157 L300,147 " fill="#FEFFDD" style="stroke:#181818;stroke-width:0.5;"/><text fill="#000000" font-family="sans-serif" font-size="13" lengthAdjust="spacing" textLength="223" x="12" y="164.0669">- Addresses Ethereum's limitations</text><text fill="#000000" font-family="sans-serif" font-size="13" lengthAdjust="spacing" textLength="149" x="12" y="179.1997">- Low transaction costs</text><text fill="#000000" font-family="sans-serif" font-size="13" lengthAdjust="spacing" textLength="283" x="12" y="194.3325">- High throughput, faster confirmation times</text></g><g id="elem_GMN11"><path d="M345.5,154.5 L345.5,194.7656 A0,0 0 0 0 345.5,194.7656 L582.5,194.7656 A0,0 0 0 0 582.5,194.7656 L582.5,164.5 L572.5,154.5 L477.064,154.5 L504.556,87.218 L469.064,154.5 L345.5,154.5 A0,0 0 0 0 345.5,154.5 " fill="#FEFFDD" style="stroke:#181818;stroke-width:0.5;"/><path d="M572.5,154.5 L572.5,164.5 L582.5,164.5 L572.5,154.5 " fill="#FEFFDD" style="stroke:#181818;stroke-width:0.5;"/><text fill="#000000" font-family="sans-serif" font-size="13" lengthAdjust="spacing" textLength="172" x="351.5" y="171.5669">- Proof of Stake consensus</text><text fill="#000000" font-family="sans-serif" font-size="13" lengthAdjust="spacing" textLength="216" x="351.5" y="186.6997">- Minimizes environmental impact</text></g><g id="elem_GMN14"><path d="M618,154.5 L618,194.7656 A0,0 0 0 0 618,194.7656 L862,194.7656 A0,0 0 0 0 862,194.7656 L862,164.5 L852,154.5 L744,154.5 L740,87.218 L736,154.5 L618,154.5 A0,0 0 0 0 618,154.5 " fill="#FEFFDD" style="stroke:#181818;stroke-width:0.5;"/><path d="M852,154.5 L852,164.5 L862,164.5 L852,154.5 " fill="#FEFFDD" style="stroke:#181818;stroke-width:0.5;"/><text fill="#000000" font-family="sans-serif" font-size="13" lengthAdjust="spacing" textLength="198" x="624" y="171.5669">- Layer 2 solution on Ethereum</text><text fill="#000000" font-family="sans-serif" font-size="13" lengthAdjust="spacing" textLength="223" x="624" y="186.6997">- Access to Ethereum's ecosystem</text></g><g id="elem_GMN17"><path d="M897.5,154.5 L897.5,194.7656 A0,0 0 0 0 897.5,194.7656 L1164.5,194.7656 A0,0 0 0 0 1164.5,194.7656 L1164.5,164.5 L1154.5,154.5 L1017.41,154.5 L952.273,87.218 L1009.41,154.5 L897.5,154.5 A0,0 0 0 0 897.5,154.5 " fill="#FEFFDD" style="stroke:#181818;stroke-width:0.5;"/><path d="M1154.5,154.5 L1154.5,164.5 L1164.5,164.5 L1154.5,154.5 " fill="#FEFFDD" style="stroke:#181818;stroke-width:0.5;"/><text fill="#000000" font-family="sans-serif" font-size="13" lengthAdjust="spacing" textLength="246" x="903.5" y="171.5669">- Inherits Ethereum's security features</text><text fill="#000000" font-family="sans-serif" font-size="13" lengthAdjust="spacing" textLength="177" x="903.5" y="186.6997">- Adds PoS consensus layer</text></g><g id="elem_GMN20"><path d="M1199.5,154.5 L1199.5,194.7656 A0,0 0 0 0 1199.5,194.7656 L1532.5,194.7656 A0,0 0 0 0 1532.5,194.7656 L1532.5,164.5 L1522.5,154.5 L1321.98,154.5 L1149.37,87.087 L1313.98,154.5 L1199.5,154.5 A0,0 0 0 0 1199.5,154.5 " fill="#FEFFDD" style="stroke:#181818;stroke-width:0.5;"/><path d="M1522.5,154.5 L1522.5,164.5 L1532.5,164.5 L1522.5,154.5 " fill="#FEFFDD" style="stroke:#181818;stroke-width:0.5;"/><text fill="#000000" font-family="sans-serif" font-size="13" lengthAdjust="spacing" textLength="152" x="1205.5" y="171.5669">- Multi-chain ecosystem</text><text fill="#000000" font-family="sans-serif" font-size="13" lengthAdjust="spacing" textLength="312" x="1205.5" y="186.6997">- Seamless communication between blockchains</text></g><!--SRC=[VL9DQyCm3BtdLuXTTbal-mVRAAomGI77iOFhAeceBHLRNid6_lkKz2kZMy5WBCbwJ-zfw_p6jGWtImbzAmoFGVp6Tuxu1hugWBVQk-1M54Zxz-4zPqnj3_Ec8K_8_X3L3XEM24yIjqvfyg56NzBniM3595jCfvRVLSMY22jHbGZIN43Eu66zJfWpPZZYt6O854aDIZYFHI-o0qsEi_D34BnatMUUgUr0koIbxRP5xw1nsMXO1JUKujW3b2Bc2daD0vrBKd_EFODb4ilQgTLjS6YPaNFP0xyI6ybFuutyGKau8giBGAQHrsjW_yffSxhUkDz3bb16vdQEzNkrl3UnG6Mg5feSlKqThw1EdPh1WkqpwI_Dyw426dHQp9EZFHcMKf-dXp2Gl09rkGUZNYKepSRjcn0UCZMw68QflCHOcFpUj1Ng3j7kqzQUBVm1]--></g></svg>