<?xml version="1.0" encoding="us-ascii" standalone="no"?><svg xmlns="http://www.w3.org/2000/svg" xmlns:xlink="http://www.w3.org/1999/xlink" contentStyleType="text/css" height="231px" preserveAspectRatio="none" style="width:1349px;height:231px;background:#FFFFFF;" version="1.1" viewBox="0 0 1349 231" width="1349px" zoomAndPan="magnify"><defs/><g><text fill="#000000" font-family="sans-serif" font-size="14" font-weight="bold" lengthAdjust="spacing" textLength="268" x="533.75" y="22.9951">Web2 Secure Sockets Layer (SSL)</text><!--cluster Advantages of SSL--><g id="cluster_Advantages of SSL"><path d="M332,43.2969 L485,43.2969 A3.75,3.75 0 0 1 487.5,45.7969 L494.5,65.5938 L1094,65.5938 A2.5,2.5 0 0 1 1096.5,68.0938 L1096.5,137.7969 A2.5,2.5 0 0 1 1094,140.2969 L332,140.2969 A2.5,2.5 0 0 1 329.5,137.7969 L329.5,45.7969 A2.5,2.5 0 0 1 332,43.2969 " fill="none" style="stroke:#000000;stroke-width:1.5;"/><line style="stroke:#000000;stroke-width:1.5;" x1="329.5" x2="494.5" y1="65.5938" y2="65.5938"/><text fill="#000000" font-family="sans-serif" font-size="14" font-weight="bold" lengthAdjust="spacing" textLength="152" x="333.5" y="58.292">Advantages of SSL</text></g><!--entity Data Security--><g id="elem_Data Security"><rect fill="#F1F1F1" height="46.2969" rx="2.5" ry="2.5" style="stroke:#181818;stroke-width:0.5;" width="137" x="346" y="78.2969"/><rect fill="#F1F1F1" height="10" style="stroke:#181818;stroke-width:0.5;" width="15" x="463" y="83.2969"/><rect fill="#F1F1F1" height="2" style="stroke:#181818;stroke-width:0.5;" width="4" x="461" y="85.2969"/><rect fill="#F1F1F1" height="2" style="stroke:#181818;stroke-width:0.5;" width="4" x="461" y="89.2969"/><text fill="#000000" font-family="sans-serif" font-size="14" lengthAdjust="spacing" textLength="97" x="361" y="111.292">Data Security</text></g><!--entity Authentication--><g id="elem_Authentication"><rect fill="#F1F1F1" height="46.2969" rx="2.5" ry="2.5" style="stroke:#181818;stroke-width:0.5;" width="148" x="518.5" y="78.2969"/><rect fill="#F1F1F1" height="10" style="stroke:#181818;stroke-width:0.5;" width="15" x="646.5" y="83.2969"/><rect fill="#F1F1F1" height="2" style="stroke:#181818;stroke-width:0.5;" width="4" x="644.5" y="85.2969"/><rect fill="#F1F1F1" height="2" style="stroke:#181818;stroke-width:0.5;" width="4" x="644.5" y="89.2969"/><text fill="#000000" font-family="sans-serif" font-size="14" lengthAdjust="spacing" textLength="108" x="533.5" y="111.292">Authentication</text></g><!--entity Credibility and Trust--><g id="elem_Credibility and Trust"><rect fill="#F1F1F1" height="46.2969" rx="2.5" ry="2.5" style="stroke:#181818;stroke-width:0.5;" width="186" x="701.5" y="78.2969"/><rect fill="#F1F1F1" height="10" style="stroke:#181818;stroke-width:0.5;" width="15" x="867.5" y="83.2969"/><rect fill="#F1F1F1" height="2" style="stroke:#181818;stroke-width:0.5;" width="4" x="865.5" y="85.2969"/><rect fill="#F1F1F1" height="2" style="stroke:#181818;stroke-width:0.5;" width="4" x="865.5" y="89.2969"/><text fill="#000000" font-family="sans-serif" font-size="14" lengthAdjust="spacing" textLength="146" x="716.5" y="111.292">Credibility and Trust</text></g><!--entity SEO Advantages--><g id="elem_SEO Advantages"><rect fill="#F1F1F1" height="46.2969" rx="2.5" ry="2.5" style="stroke:#181818;stroke-width:0.5;" width="157" x="923" y="78.2969"/><rect fill="#F1F1F1" height="10" style="stroke:#181818;stroke-width:0.5;" width="15" x="1060" y="83.2969"/><rect fill="#F1F1F1" height="2" style="stroke:#181818;stroke-width:0.5;" width="4" x="1058" y="85.2969"/><rect fill="#F1F1F1" height="2" style="stroke:#181818;stroke-width:0.5;" width="4" x="1058" y="89.2969"/><text fill="#000000" font-family="sans-serif" font-size="14" lengthAdjust="spacing" textLength="117" x="938" y="111.292">SEO Advantages</text></g><g id="elem_GMN7"><path d="M6,184.2969 L6,224.5625 A0,0 0 0 0 6,224.5625 L325,224.5625 A0,0 0 0 0 325,224.5625 L325,194.2969 L315,184.2969 L216.593,184.2969 L360.164,124.337 L208.593,184.2969 L6,184.2969 A0,0 0 0 0 6,184.2969 " fill="#FEFFDD" style="stroke:#181818;stroke-width:0.5;"/><path d="M315,184.2969 L315,194.2969 L325,194.2969 L315,184.2969 " fill="#FEFFDD" style="stroke:#181818;stroke-width:0.5;"/><text fill="#000000" font-family="sans-serif" font-size="13" lengthAdjust="spacing" textLength="175" x="12" y="201.3638">- Safeguards data in transit</text><text fill="#000000" font-family="sans-serif" font-size="13" lengthAdjust="spacing" textLength="298" x="12" y="216.4966">- Prevents data theft and unauthorized access</text></g><g id="elem_GMN10"><path d="M360.5,184.2969 L360.5,224.5625 A0,0 0 0 0 360.5,224.5625 L670.5,224.5625 A0,0 0 0 0 670.5,224.5625 L670.5,194.2969 L660.5,184.2969 L534.207,184.2969 L575.411,124.7121 L526.207,184.2969 L360.5,184.2969 A0,0 0 0 0 360.5,184.2969 " fill="#FEFFDD" style="stroke:#181818;stroke-width:0.5;"/><path d="M660.5,184.2969 L660.5,194.2969 L670.5,194.2969 L660.5,184.2969 " fill="#FEFFDD" style="stroke:#181818;stroke-width:0.5;"/><text fill="#000000" font-family="sans-serif" font-size="13" lengthAdjust="spacing" textLength="270" x="366.5" y="201.3638">- Ensures connection to the correct server</text><text fill="#000000" font-family="sans-serif" font-size="13" lengthAdjust="spacing" textLength="289" x="366.5" y="216.4966">- Reduces risk of phishing attacks and scams</text></g><g id="elem_GMN13"><path d="M705.5,184.2969 L705.5,224.5625 A0,0 0 0 0 705.5,224.5625 L1039.5,224.5625 A0,0 0 0 0 1039.5,224.5625 L1039.5,194.2969 L1029.5,184.2969 L861.602,184.2969 L811.811,124.7121 L853.602,184.2969 L705.5,184.2969 A0,0 0 0 0 705.5,184.2969 " fill="#FEFFDD" style="stroke:#181818;stroke-width:0.5;"/><path d="M1029.5,184.2969 L1029.5,194.2969 L1039.5,194.2969 L1029.5,184.2969 " fill="#FEFFDD" style="stroke:#181818;stroke-width:0.5;"/><text fill="#000000" font-family="sans-serif" font-size="13" lengthAdjust="spacing" textLength="313" x="711.5" y="201.3638">- Certificate Authorities verify website legitimacy</text><text fill="#000000" font-family="sans-serif" font-size="13" lengthAdjust="spacing" textLength="150" x="711.5" y="216.4966">- Builds trust with users</text></g><g id="elem_GMN16"><path d="M1074.5,184.2969 L1074.5,224.5625 A0,0 0 0 0 1074.5,224.5625 L1342.5,224.5625 A0,0 0 0 0 1342.5,224.5625 L1342.5,194.2969 L1332.5,184.2969 L1173.35,184.2969 L1046.67,124.337 L1165.35,184.2969 L1074.5,184.2969 A0,0 0 0 0 1074.5,184.2969 " fill="#FEFFDD" style="stroke:#181818;stroke-width:0.5;"/><path d="M1332.5,184.2969 L1332.5,194.2969 L1342.5,194.2969 L1332.5,184.2969 " fill="#FEFFDD" style="stroke:#181818;stroke-width:0.5;"/><text fill="#000000" font-family="sans-serif" font-size="13" lengthAdjust="spacing" textLength="195" x="1080.5" y="201.3638">- Higher search engine ranking</text><text fill="#000000" font-family="sans-serif" font-size="13" lengthAdjust="spacing" textLength="247" x="1080.5" y="216.4966">- Increased visibility and organic traffic</text></g><!--SRC=[VLB1JkDG3BpdAqQSs4Cl_45XaK120f6Lzh3gmNrn4gljUyXsMdLN- -_u1GI82cxHZD_CU1mNtp9-y_e2BQT96Mr96tR37HrPSTwsTp-QvedIXWR6sRBRK_RuD9GUGPxXNmFy-KbEBmhYnrL5bfEFd5qIkPGyGrVAdQnb6oEWtE6NJkOpqrxVurrwrVnlcboSiIxkPLUjJXqMQAddOIBj35rb9SELiedFz8FoFXAyaf6czzbsoXJPYifVxa0fiLd3WLV7Kz_JFHQupXPL6LB9cLF5uQKw1A8Q28nrppeFFt8tXGTKR5CLdqQnKV80SezQRSvaYNRVfVYokWMkM5twce-nV5dC9Vp2N_eZ3hoEGXXR7WBVKJhEhoudsKPlNdLm41ynHURl8do-KLMvaM6ClyIOD8tWF4Xcn0asiTyyS9kJCbaKlHVxk43HWRAaUh0-mh_vFWC0]--></g></svg>