<?xml version="1.0" encoding="us-ascii" standalone="no"?><svg xmlns="http://www.w3.org/2000/svg" xmlns:xlink="http://www.w3.org/1999/xlink" contentStyleType="text/css" height="724px" preserveAspectRatio="none" style="width:880px;height:724px;background:#FFFFFF;" version="1.1" viewBox="0 0 880 724" width="880px" zoomAndPan="magnify"><defs/><g><text fill="#000000" font-family="sans-serif" font-size="14" font-weight="bold" lengthAdjust="spacing" textLength="268" x="307.25" y="27.9951">Web2 Secure Sockets Layer (SSL)</text><rect fill="none" height="191.7344" style="stroke:#000000;stroke-width:1.5;" width="863.5" x="10" y="339.5234"/><line style="stroke:#181818;stroke-width:0.5;stroke-dasharray:5.0,5.0;" x1="38" x2="38" y1="118.5938" y2="643.9219"/><line style="stroke:#181818;stroke-width:0.5;stroke-dasharray:5.0,5.0;" x1="162" x2="162" y1="118.5938" y2="643.9219"/><line style="stroke:#181818;stroke-width:0.5;stroke-dasharray:5.0,5.0;" x1="326" x2="326" y1="118.5938" y2="643.9219"/><line style="stroke:#181818;stroke-width:0.5;stroke-dasharray:5.0,5.0;" x1="536.5" x2="536.5" y1="118.5938" y2="643.9219"/><line style="stroke:#181818;stroke-width:0.5;stroke-dasharray:5.0,5.0;" x1="656.5" x2="656.5" y1="118.5938" y2="643.9219"/><text fill="#000000" font-family="sans-serif" font-size="14" lengthAdjust="spacing" textLength="31" x="20" y="115.292">User</text><ellipse cx="38.5" cy="50.7969" fill="#E2E2F0" rx="8" ry="8" style="stroke:#181818;stroke-width:0.5;"/><path d="M38.5,58.7969 L38.5,85.7969 M25.5,66.7969 L51.5,66.7969 M38.5,85.7969 L25.5,100.7969 M38.5,85.7969 L51.5,100.7969 " fill="none" style="stroke:#181818;stroke-width:0.5;"/><text fill="#000000" font-family="sans-serif" font-size="14" lengthAdjust="spacing" textLength="31" x="20" y="655.917">User</text><ellipse cx="38.5" cy="667.7188" fill="#E2E2F0" rx="8" ry="8" style="stroke:#181818;stroke-width:0.5;"/><path d="M38.5,675.7188 L38.5,702.7188 M25.5,683.7188 L51.5,683.7188 M38.5,702.7188 L25.5,717.7188 M38.5,702.7188 L51.5,717.7188 " fill="none" style="stroke:#181818;stroke-width:0.5;"/><text fill="#000000" font-family="sans-serif" font-size="14" lengthAdjust="spacing" textLength="184" x="67" y="115.292">Certificate Authority (CA)</text><ellipse cx="162" cy="50.7969" fill="#E2E2F0" rx="8" ry="8" style="stroke:#181818;stroke-width:0.5;"/><path d="M162,58.7969 L162,85.7969 M149,66.7969 L175,66.7969 M162,85.7969 L149,100.7969 M162,85.7969 L175,100.7969 " fill="none" style="stroke:#181818;stroke-width:0.5;"/><text fill="#000000" font-family="sans-serif" font-size="14" lengthAdjust="spacing" textLength="184" x="67" y="655.917">Certificate Authority (CA)</text><ellipse cx="162" cy="667.7188" fill="#E2E2F0" rx="8" ry="8" style="stroke:#181818;stroke-width:0.5;"/><path d="M162,675.7188 L162,702.7188 M149,683.7188 L175,683.7188 M162,702.7188 L149,717.7188 M162,702.7188 L175,717.7188 " fill="none" style="stroke:#181818;stroke-width:0.5;"/><rect fill="#E2E2F0" height="30.2969" rx="2.5" ry="2.5" style="stroke:#181818;stroke-width:0.5;" width="119" x="267" y="87.2969"/><text fill="#000000" font-family="sans-serif" font-size="14" lengthAdjust="spacing" textLength="105" x="274" y="107.292">Client Browser</text><rect fill="#E2E2F0" height="30.2969" rx="2.5" ry="2.5" style="stroke:#181818;stroke-width:0.5;" width="119" x="267" y="642.9219"/><text fill="#000000" font-family="sans-serif" font-size="14" lengthAdjust="spacing" textLength="105" x="274" y="662.917">Client Browser</text><rect fill="#E2E2F0" height="30.2969" rx="2.5" ry="2.5" style="stroke:#181818;stroke-width:0.5;" width="122" x="475.5" y="87.2969"/><text fill="#000000" font-family="sans-serif" font-size="14" lengthAdjust="spacing" textLength="108" x="482.5" y="107.292">SSL Certificate</text><rect fill="#E2E2F0" height="30.2969" rx="2.5" ry="2.5" style="stroke:#181818;stroke-width:0.5;" width="122" x="475.5" y="642.9219"/><text fill="#000000" font-family="sans-serif" font-size="14" lengthAdjust="spacing" textLength="108" x="482.5" y="662.917">SSL Certificate</text><rect fill="#E2E2F0" height="30.2969" rx="2.5" ry="2.5" style="stroke:#181818;stroke-width:0.5;" width="98" x="607.5" y="87.2969"/><text fill="#000000" font-family="sans-serif" font-size="14" lengthAdjust="spacing" textLength="84" x="614.5" y="107.292">Web Server</text><rect fill="#E2E2F0" height="30.2969" rx="2.5" ry="2.5" style="stroke:#181818;stroke-width:0.5;" width="98" x="607.5" y="642.9219"/><text fill="#000000" font-family="sans-serif" font-size="14" lengthAdjust="spacing" textLength="84" x="614.5" y="662.917">Web Server</text><polygon fill="#181818" points="314.5,145.7266,324.5,149.7266,314.5,153.7266,318.5,149.7266" style="stroke:#181818;stroke-width:1.0;"/><line style="stroke:#181818;stroke-width:1.0;" x1="38.5" x2="320.5" y1="149.7266" y2="149.7266"/><text fill="#000000" font-family="sans-serif" font-size="13" lengthAdjust="spacing" textLength="99" x="45.5" y="144.6606">Access website</text><polygon fill="#181818" points="644.5,174.8594,654.5,178.8594,644.5,182.8594,648.5,178.8594" style="stroke:#181818;stroke-width:1.0;"/><line style="stroke:#181818;stroke-width:1.0;" x1="326.5" x2="650.5" y1="178.8594" y2="178.8594"/><text fill="#000000" font-family="sans-serif" font-size="13" lengthAdjust="spacing" textLength="299" x="333.5" y="173.7935">Request server's public key and SSL certificate</text><polygon fill="#181818" points="337.5,203.9922,327.5,207.9922,337.5,211.9922,333.5,207.9922" style="stroke:#181818;stroke-width:1.0;"/><line style="stroke:#181818;stroke-width:1.0;" x1="331.5" x2="655.5" y1="207.9922" y2="207.9922"/><text fill="#000000" font-family="sans-serif" font-size="13" lengthAdjust="spacing" textLength="223" x="343.5" y="202.9263">Send public key and SSL certificate</text><polygon fill="#181818" points="524.5,233.125,534.5,237.125,524.5,241.125,528.5,237.125" style="stroke:#181818;stroke-width:1.0;"/><line style="stroke:#181818;stroke-width:1.0;" x1="326.5" x2="530.5" y1="237.125" y2="237.125"/><text fill="#000000" font-family="sans-serif" font-size="13" lengthAdjust="spacing" textLength="133" x="333.5" y="232.0591">Verify SSL certificate</text><polygon fill="#181818" points="173,262.2578,163,266.2578,173,270.2578,169,266.2578" style="stroke:#181818;stroke-width:1.0;"/><line style="stroke:#181818;stroke-width:1.0;" x1="167" x2="535.5" y1="266.2578" y2="266.2578"/><text fill="#000000" font-family="sans-serif" font-size="13" lengthAdjust="spacing" textLength="157" x="179" y="261.1919">Check certificate validity</text><polygon fill="#181818" points="524.5,291.3906,534.5,295.3906,524.5,299.3906,528.5,295.3906" style="stroke:#181818;stroke-width:1.0;"/><line style="stroke:#181818;stroke-width:1.0;stroke-dasharray:2.0,2.0;" x1="162" x2="530.5" y1="295.3906" y2="295.3906"/><text fill="#000000" font-family="sans-serif" font-size="13" lengthAdjust="spacing" textLength="169" x="169" y="290.3247">Confirm certificate validity</text><polygon fill="#181818" points="337.5,320.5234,327.5,324.5234,337.5,328.5234,333.5,324.5234" style="stroke:#181818;stroke-width:1.0;"/><line style="stroke:#181818;stroke-width:1.0;stroke-dasharray:2.0,2.0;" x1="331.5" x2="535.5" y1="324.5234" y2="324.5234"/><text fill="#000000" font-family="sans-serif" font-size="13" lengthAdjust="spacing" textLength="186" x="343.5" y="319.4575">Confirm server's authenticity</text><path d="M10,339.5234 L76,339.5234 L76,346.6563 L66,356.6563 L10,356.6563 L10,339.5234 " fill="#EEEEEE" style="stroke:#000000;stroke-width:1.5;"/><rect fill="none" height="191.7344" style="stroke:#000000;stroke-width:1.5;" width="863.5" x="10" y="339.5234"/><text fill="#000000" font-family="sans-serif" font-size="13" font-weight="bold" lengthAdjust="spacing" textLength="21" x="25" y="352.5903">alt</text><text fill="#000000" font-family="sans-serif" font-size="11" font-weight="bold" lengthAdjust="spacing" textLength="293" x="91" y="351.7339">[Certificate is valid and server is authentic]</text><polygon fill="#181818" points="644.5,388.9219,654.5,392.9219,644.5,396.9219,648.5,392.9219" style="stroke:#181818;stroke-width:1.0;"/><line style="stroke:#181818;stroke-width:1.0;" x1="326.5" x2="650.5" y1="392.9219" y2="392.9219"/><text fill="#000000" font-family="sans-serif" font-size="13" lengthAdjust="spacing" textLength="243" x="333.5" y="372.7231">Encrypt data using server's public key</text><text fill="#000000" font-family="sans-serif" font-size="13" lengthAdjust="spacing" textLength="207" x="333.5" y="387.856">(ex: financial info, personal info)</text><line style="stroke:#181818;stroke-width:1.0;" x1="656.5" x2="698.5" y1="422.0547" y2="422.0547"/><line style="stroke:#181818;stroke-width:1.0;" x1="698.5" x2="698.5" y1="422.0547" y2="435.0547"/><line style="stroke:#181818;stroke-width:1.0;" x1="657.5" x2="698.5" y1="435.0547" y2="435.0547"/><polygon fill="#181818" points="667.5,431.0547,657.5,435.0547,667.5,439.0547,663.5,435.0547" style="stroke:#181818;stroke-width:1.0;"/><text fill="#000000" font-family="sans-serif" font-size="13" lengthAdjust="spacing" textLength="198" x="663.5" y="416.9888">Decrypt data using private key</text><polygon fill="#181818" points="337.5,460.1875,327.5,464.1875,337.5,468.1875,333.5,464.1875" style="stroke:#181818;stroke-width:1.0;"/><polygon fill="#181818" points="644.5,460.1875,654.5,464.1875,644.5,468.1875,648.5,464.1875" style="stroke:#181818;stroke-width:1.0;"/><line style="stroke:#181818;stroke-width:1.0;" x1="331.5" x2="650.5" y1="464.1875" y2="464.1875"/><text fill="#000000" font-family="sans-serif" font-size="13" lengthAdjust="spacing" textLength="219" x="343.5" y="459.1216">Secure communication (gibberish)</text><line style="stroke:#000000;stroke-width:1.0;stroke-dasharray:2.0,2.0;" x1="10" x2="873.5" y1="473.1875" y2="473.1875"/><text fill="#000000" font-family="sans-serif" font-size="11" font-weight="bold" lengthAdjust="spacing" textLength="324" x="15" y="483.3979">[Certificate is invalid or server is not authentic]</text><polygon fill="#181818" points="49.5,519.2578,39.5,523.2578,49.5,527.2578,45.5,523.2578" style="stroke:#181818;stroke-width:1.0;"/><line style="stroke:#181818;stroke-width:1.0;" x1="43.5" x2="325.5" y1="523.2578" y2="523.2578"/><text fill="#000000" font-family="sans-serif" font-size="13" lengthAdjust="spacing" textLength="102" x="55.5" y="503.0591">Display warning</text><text fill="#000000" font-family="sans-serif" font-size="13" lengthAdjust="spacing" textLength="163" x="55.5" y="518.1919">(possible phishing attack)</text><path d="M274,543.2578 L274,628.2578 L707,628.2578 L707,553.2578 L697,543.2578 L274,543.2578 " fill="#FEFFDD" style="stroke:#181818;stroke-width:0.5;"/><path d="M697,543.2578 L697,553.2578 L707,553.2578 L697,543.2578 " fill="#FEFFDD" style="stroke:#181818;stroke-width:0.5;"/><text fill="#000000" font-family="sans-serif" font-size="13" lengthAdjust="spacing" textLength="82" x="417.75" y="560.3247">Advantages:</text><text fill="#000000" font-family="sans-serif" font-size="13" lengthAdjust="spacing" textLength="95" x="417.75" y="575.4575">- Data security</text><text fill="#000000" font-family="sans-serif" font-size="13" lengthAdjust="spacing" textLength="102" x="417.75" y="590.5903">- Authentication</text><text fill="#000000" font-family="sans-serif" font-size="13" lengthAdjust="spacing" textLength="137" x="417.75" y="605.7231">- Credibility and Trust</text><text fill="#000000" font-family="sans-serif" font-size="13" lengthAdjust="spacing" textLength="116" x="417.75" y="620.856">- SEO Advantages</text><!--SRC=[XLDDRzim3BthLn2zB06Qoux6CC1pUoimODx7PHTQPX8YZkI9SZB_-r6sqwXjYfqioUyzlaTAaMD7y8kQZr2J7G91xUs1ei0JZXHWLTTFQsFGHX_WXr1ObdSLXSXRjXW9oY7kVU0umgegrtU00bLfJ8yAiToZYuhlcFJx9VYpgioOwUWbJCj19ZtZhlkNOBMjhiDfqPkNnYIRiFcyw1TGMaiYSAP6M2KM9mgO2GLyepy3IGIPzXy4-g7fsCA1Ha3NGZ9bCnCpBozHayB-mxhMpG8Ly9C2RyUtwAo_YL8MKEt97d8GdB3ZLljkgX8shuKhxxOSZkyGSlaio8Nqt0hKsUeVxRco37OnBm8ii-GKUEQaisVIZMO_EXl6FaAB4M4GThjRVV_jLlItW2qxT9Qn0tPRVmyz1V5ksQwpGLpK7-YDUX_ubBogwiNEfuonN7lhZyV1fLJi7Qnst3Gw6Dcl3NL2hqEpcsFhIxYcTZxUJ9xkepfZwJiSuOp1gIqDs7iHRlJvzNijbAnYZ6WFMjArngWSWK_QizJzvOANxKclF-v82hE1XvHKKeWqeStq62S7Kn8zg0Art72NtcSQq_SmIDJp-l4hNALIpPI0_W40]--></g></svg>